<?xml version="1.0" encoding="utf-8"?>
<!-- Generator: Adobe Illustrator 25.2.0, SVG Export Plug-In . SVG Version: 6.00 Build 0)  -->
<svg version="1.1" id="Layer_1" xmlns="http://www.w3.org/2000/svg" xmlns:xlink="http://www.w3.org/1999/xlink" x="0px" y="0px"
	 viewBox="0 0 178.6 134" style="enable-background:new 0 0 178.6 134;" xml:space="preserve">
<style type="text/css">
	.st0{clip-path:url(#SVGID_2_);fill:#96B6DB;}
</style>
<g>
	<defs>
		<rect id="SVGID_1_" y="0" width="178.6" height="134"/>
	</defs>
	<clipPath id="SVGID_2_">
		<use xlink:href="#SVGID_1_"  style="overflow:visible;"/>
	</clipPath>
	<path class="st0" d="M11.4,113.4c0.1,0,0.2,0.1,0.4,0.1c0.3-0.4,0.7-0.8,1-1.1c3.4-3.9,6.8-7.7,10.1-11.5c3.5-4,6.9-7.9,10.4-11.9
		c3.5-4,7-8,10.5-12c2.9-3.4,5.9-6.7,8.8-10.1c2-2.2,3.9-4.5,5.9-6.7c0.4-0.4,0.4-0.8-0.1-1.1c-1.1-0.9-2.1-1.8-3.1-2.7
		c-5.2-4.5-10.5-9-15.7-13.4C35,39,30.5,35.1,26,31.2c-3.6-3.1-7.1-6.1-10.7-9.1c-1.1-0.9-2.2-1.8-3.4-2.9c-0.2,0.6-0.4,1-0.5,1.5
		c-0.1,0.9-0.2,1.8-0.2,2.7c0,7.6,0,15.1,0,22.7c0,21.5,0,43,0,64.5C11.2,111.5,11.3,112.5,11.4,113.4 M166.8,113.6
		c0.1,0,0.2,0,0.3,0c0.1-0.9,0.3-1.8,0.3-2.8c0-29.1,0-58.3,0-87.4c0-0.9-0.1-1.8-0.3-2.8c-0.1-0.4-0.3-0.8-0.5-1.3
		c-1,0.9-1.9,1.6-2.8,2.4c-3.8,3.3-7.7,6.6-11.5,9.8c-4.5,3.9-9,7.8-13.6,11.7c-6.1,5.3-12.3,10.6-18.5,15.8
		c-0.6,0.5-0.6,0.9-0.1,1.4c1.4,1.5,2.7,3.1,4,4.6c4.1,4.7,8.3,9.4,12.4,14.2c4.1,4.7,8.3,9.4,12.4,14.2c5.5,6.3,11,12.5,16.5,18.8
		C165.9,112.6,166.4,113.1,166.8,113.6 M20.4,11.5c0.3,0.4,0.3,0.5,0.4,0.6c5,4.3,10,8.6,15.1,12.9c6.8,5.8,13.5,11.6,20.2,17.3
		c4.8,4.1,9.6,8.2,14.4,12.3c5.9,5.1,11.8,10.2,17.7,15.3c1.1,1,1.1,1,2.3,0c4-3.4,8-6.9,12-10.3c7-6,14.1-12,21.1-18
		c4.2-3.6,8.3-7.1,12.5-10.7c6.7-5.8,13.4-11.5,20.2-17.3c0.7-0.6,1.3-1.2,1.9-1.7c0-0.1-0.1-0.2-0.1-0.3c-1-0.1-1.9-0.3-2.9-0.3
		c-7.7,0-15.5,0-23.2,0c-36.2,0-72.3,0-108.5,0C22.5,11.1,21.5,11.3,20.4,11.5 M67.5,66.9c-16.1,18.4-32.1,36.7-48.3,55.2
		c0.8,0.2,1.3,0.4,1.8,0.5c1.7,0.1,3.5,0.3,5.2,0.3c37.4,0,74.8,0,112.2,0c5.6,0,11.2,0,16.9,0c1.3,0,2.7,0,4-0.9
		c-16.1-18.4-32.1-36.7-48.2-55.1c-1.2,1.1-2.4,2.1-3.5,3.1C102.8,74,98,78,93.3,82.1c-2.4,2.1-5.5,2.1-7.9,0
		c-0.9-0.8-1.8-1.6-2.8-2.4c-4.2-3.6-8.3-7.1-12.5-10.7C69.3,68.3,68.4,67.7,67.5,66.9 M0,114.6V19.6c0.1-0.5,0.3-1,0.4-1.5
		c1-4.7,3.2-8.8,6.7-12.1c4.5-4.2,9.9-6,16-5.9C36.6,0.1,50,0,63.5,0c30.7,0,61.4,0,92.1,0c6.8,0,12.6,2.2,17.2,7.3
		c3.7,4.1,5.8,8.9,5.9,14.5c0.1,29.9,0,59.8,0,89.7c0,1.5-0.1,3.1-0.4,4.6c-0.9,4.6-3.1,8.6-6.5,11.8c-4.5,4.3-9.9,6.2-16.2,6.2
		c-34.6,0-69.1,0-103.7,0c-10.2,0-20.3,0.1-30.5-0.1c-9.8-0.2-18-7-20.6-16.4C0.5,116.5,0.3,115.6,0,114.6"/>
</g>
</svg>
