<?xml version="1.0" encoding="utf-8"?>
<!-- Generator: Adobe Illustrator 25.2.0, SVG Export Plug-In . SVG Version: 6.00 Build 0)  -->
<svg version="1.1" id="Layer_1" xmlns="http://www.w3.org/2000/svg" xmlns:xlink="http://www.w3.org/1999/xlink" x="0px" y="0px"
	 viewBox="0 0 657.19 720.87" style="enable-background:new 0 0 657.19 720.87;" xml:space="preserve">
<style type="text/css">
	.st0{fill:#96B6DB;}
</style>
<path class="st0" d="M657.15,359.86c0,86.65,0,173.3,0,259.95c0,17.83,0.11,35.66-0.02,53.49c-0.2,26.56-21.29,47.54-47.82,47.55
	c-142.14,0.03-284.28,0.02-426.42,0.02c-44.83,0-89.65,0.01-134.48,0c-27.03-0.01-48.25-20.98-48.29-48.14
	c-0.1-77.83-0.06-155.65-0.07-233.47c-0.01-86.98,0-173.97-0.01-260.95c0-43.49-0.13-86.98,0.04-130.47
	C0.19,21.06,21.62,0.02,48.26,0.02c183.96-0.01,367.93-0.05,551.89,0.01c6.79,0,13.78-0.02,20.34,1.46
	c21.89,4.94,36.51,23.77,36.58,46.42c0.1,34.33,0.07,68.65,0.07,102.98C657.16,220.55,657.15,290.2,657.15,359.86z M602.62,666.34
	c0-204.12,0-407.71,0-611.9c-2.25,0-4.2,0-6.15,0c-72.66-0.03-145.31-0.07-217.97-0.07c-63.16,0-126.31,0.06-189.47,0.07
	c-42.99,0-85.99,0-128.98-0.15c-4.19-0.02-5.82,0.8-5.68,5.46c0.36,11.99,0.06,23.99,0.06,35.99c0.02,86.65,0.07,173.31,0.07,259.96
	c0,99.99-0.05,199.97-0.07,299.96c0,3.45,0,6.91,0,10.69C237.55,666.34,419.93,666.34,602.62,666.34z"/>
<path class="st0" d="M547.71,563.36c0,12.02,0,23.87,0,36c-145.99,0-291.86,0-438.05,0c0-12.08,0-23.89,0-36
	C255.74,563.36,401.6,563.36,547.71,563.36z"/>
<path class="st0" d="M109.6,512.09c0-12.18,0-23.92,0-36c146.1,0,291.95,0,438.08,0c0,11.99,0,23.85,0,36
	C401.77,512.09,255.92,512.09,109.6,512.09z"/>
<path class="st0" d="M109.74,424.81c0-11.98,0-23.91,0-36c146.12,0,291.83,0,437.88,0c0,12.03,0,23.85,0,36
	C401.76,424.81,255.93,424.81,109.74,424.81z"/>
<path class="st0" d="M109.74,337.54c0-11.98,0-23.91,0-36c146.12,0,291.83,0,437.88,0c0,12.03,0,23.85,0,36
	C401.76,337.54,255.93,337.54,109.74,337.54z"/>
<path class="st0" d="M296.45,162.99c0-12.01,0-23.86,0-36c83.75,0,167.15,0,251.08,0c0,11.95,0,23.8,0,36
	C464,162.99,380.43,162.99,296.45,162.99z"/>
<path class="st0" d="M547.78,214.26c0,12.14,0,23.93,0,36c-83.68,0-167.08,0-251.12,0c0-12.01,0-23.86,0-36
	C380.27,214.26,463.66,214.26,547.78,214.26z"/>
<g>
	<path class="st0" d="M260.17,257.42c-42.69,0-84.86,0-126.92,0c-0.25-0.32-0.5-0.5-0.5-0.68c0.06-11.88-0.6-23.83,0.42-35.63
		c1.33-15.34,14.9-27.24,30.29-27.4c21.84-0.23,43.69-0.23,65.53,0.03c17.45,0.21,31.09,14.37,31.17,31.8
		C260.21,236.06,260.17,246.56,260.17,257.42z"/>
	<path class="st0" d="M196.22,119.34c18.76-0.22,34.49,15.06,34.8,33.8c0.33,19.29-14.92,35.17-33.91,35.33
		c-19.52,0.16-35.13-14.84-35.26-33.91C161.71,134.98,176.75,119.57,196.22,119.34z"/>
</g>
</svg>
